<svg width="217" height="750" viewBox="0 0 217 750" fill="none" xmlns="http://www.w3.org/2000/svg">
<g clip-path="url(#clip0_194_392)">
<path d="M108.906 4C121.199 4 130.666 9.95134 136.633 18.8906C142.657 27.9151 145.113 40.0262 142.943 51.9922C140.627 64.7624 135.53 76.805 127.655 84.1768L126.377 85.3721L126.388 87.1221C126.432 94.2173 127 102.379 129.043 109.24C134.386 127.183 151.223 132.159 165.531 135.25C178.342 138.018 186.242 142.257 191.367 147.824C196.497 153.398 199.29 160.781 200.92 170.775C202.563 180.848 202.949 192.997 203.655 207.925C204.355 222.745 205.365 240.009 208.302 259.862C216.737 316.872 209.168 344.714 209.168 363.005C209.168 372.015 210.504 379.609 211.571 386.405C212.648 393.273 213.444 399.286 212.726 405.77C212.017 412.176 209.593 418.428 206.811 423.326C205.426 425.765 203.993 427.795 202.715 429.285C201.351 430.876 200.447 431.518 200.175 431.646C199.876 431.407 199.236 430.646 198.69 428.916C197.626 425.55 197.38 419.931 199.192 412.969L199.373 412.291C199.676 411.196 199.629 410.142 199.526 409.348C199.418 408.522 199.211 407.693 198.986 406.929C198.547 405.442 197.87 403.662 197.272 402.006C195.996 398.473 194.792 394.738 194.682 391.04C194.513 385.35 195.207 380.582 195.988 376.016C196.751 371.55 197.678 366.928 197.678 362.167C197.678 354.393 196.105 343.495 194.572 330.677C193.018 317.685 191.435 302.277 191.268 284.903C191.127 270.24 187.854 252.118 184.683 237.842C183.089 230.666 181.503 224.389 180.317 219.904C179.723 217.661 179.229 215.864 178.882 214.625C178.709 214.006 178.572 213.525 178.478 213.198C178.431 213.035 178.395 212.909 178.37 212.824C178.358 212.782 178.349 212.749 178.342 212.727C178.339 212.715 178.336 212.706 178.334 212.7C178.333 212.697 178.333 212.695 178.332 212.693L178.331 212.691C178.327 212.692 178.203 212.727 174.492 213.814L178.331 212.69L174.707 200.321L170.692 212.568C162.159 238.589 161.294 258.328 163.002 278.287C163.848 288.172 165.33 298.151 166.783 308.818C168.242 319.528 169.691 331.056 170.523 344.273C173.521 391.92 169.416 432.236 164.68 463.653C162.306 479.404 159.789 492.825 157.899 503.991C156.097 514.633 154.817 523.461 155 529.873L155.023 530.486C155.894 550.058 155.495 565.307 148.511 600.351C144.979 618.074 141.093 639.979 138.186 659.338C135.307 678.51 133.305 695.684 133.722 703.63C134.193 712.606 139.862 719.626 144.551 725.187C147.031 728.127 149.249 730.652 150.989 733.202C152.71 735.725 153.674 737.879 153.891 739.892C153.929 740.242 153.861 741.102 151.984 742.371C150.141 743.617 147.275 744.688 143.883 745.342C140.535 745.987 136.986 746.164 133.954 745.846C130.763 745.51 128.81 744.698 127.995 743.971C125.072 741.363 121.283 735.865 118.657 729.187C116.035 722.516 114.844 715.351 116.306 709.379C117.599 704.097 118.011 695.881 118.087 686.316C118.165 676.635 117.893 665.096 117.673 652.984C117.23 628.608 117 601.887 120.055 581.689C122.94 562.622 126.041 550.66 122.824 528.335C120.015 508.835 118.61 478.038 118.223 450.46C118.03 436.701 118.092 423.807 118.353 413.606C118.618 403.242 119.084 396.041 119.615 393.387L120.573 388.602H96.427L97.385 393.387C97.9163 396.04 98.3833 403.242 98.6487 413.606C98.9098 423.807 98.9705 436.701 98.7776 450.46C98.3909 478.037 96.987 508.834 94.177 528.335C90.9602 550.66 94.0613 562.622 96.9456 581.689C100.001 601.886 99.7715 628.608 99.3284 652.984C99.1082 665.096 98.8358 676.635 98.9133 686.316C98.9875 695.582 99.3767 703.582 100.576 708.875L100.696 709.379C102.158 715.351 100.965 722.516 98.343 729.187C95.7175 735.865 91.9287 741.363 89.0051 743.971C88.1899 744.698 86.2375 745.51 83.0461 745.846C80.0149 746.164 76.4655 745.987 73.1174 745.342C69.7258 744.688 66.8604 743.616 65.0178 742.371C63.1408 741.102 63.0719 740.242 63.1096 739.892C63.3263 737.879 64.2909 735.725 66.012 733.202C67.7517 730.652 69.9697 728.127 72.4495 725.187C77.1387 719.626 82.8077 712.606 83.2786 703.63V703.629C83.6949 695.683 81.6938 678.51 78.8147 659.338C75.9076 639.979 72.0215 618.074 68.4895 600.351C61.5063 565.307 61.1071 550.058 61.9778 530.486C62.2652 524.029 60.9615 514.977 59.1018 503.991C57.2115 492.825 54.694 479.404 52.3196 463.653C47.5834 432.236 43.4795 391.919 46.4778 344.272C47.3097 331.055 48.7576 319.528 50.2161 308.818C51.6689 298.15 53.1507 288.171 53.9963 278.286C55.7036 258.328 54.8388 238.588 46.3059 212.567L42.2893 200.32L38.6663 212.689L42.3987 213.783C38.6995 212.7 38.6658 212.69 38.6653 212.69V212.693C38.6648 212.695 38.6642 212.697 38.6633 212.7C38.6616 212.706 38.6587 212.715 38.6555 212.726C38.649 212.748 38.6395 212.781 38.6272 212.823C38.6025 212.908 38.5667 213.035 38.5198 213.198C38.426 213.525 38.289 214.006 38.1155 214.625C37.7684 215.864 37.2735 217.661 36.6799 219.904C35.4933 224.389 33.9086 230.666 32.3147 237.842C29.1437 252.118 25.8706 270.239 25.7297 284.902C25.5625 302.276 23.98 317.685 22.426 330.677C20.8929 343.495 19.3196 354.393 19.3196 362.166C19.3196 366.928 20.2464 371.55 21.011 376.016C21.744 380.296 22.4006 384.754 22.3401 389.982L22.3186 391.039C22.2086 394.737 21.0047 398.472 19.7288 402.005C19.1304 403.662 18.4535 405.442 18.0149 406.929C17.7893 407.693 17.582 408.522 17.4749 409.348C17.3717 410.142 17.3249 411.195 17.6272 412.29V412.291C19.6358 419.566 19.4082 425.441 18.3108 428.915C17.7642 430.645 17.1235 431.406 16.8245 431.646C16.5514 431.516 15.6471 430.873 14.2854 429.285C13.0075 427.795 11.5748 425.765 10.1897 423.326C7.40775 418.428 4.98402 412.175 4.27466 405.769C3.55677 399.285 4.35207 393.272 5.42993 386.404C6.4965 379.608 7.83228 372.014 7.83228 363.005C7.83227 344.714 0.263579 316.871 8.69849 259.861C11.636 240.008 12.6462 222.744 13.3459 207.924C14.0508 192.996 14.4363 180.847 16.0784 170.774C17.7078 160.78 20.5004 153.398 25.6301 147.824C30.7547 142.256 38.6546 138.017 51.4661 135.249C65.7744 132.158 82.6107 127.182 87.9543 109.24C90.0751 102.12 90.6039 93.6025 90.6057 86.3125L90.6067 84.6484L89.426 83.4756C81.9586 76.0493 77.1093 64.3489 74.8684 51.9912C72.6984 40.0255 75.1536 27.915 81.178 18.8906C87.1455 9.95146 96.6116 4.00008 108.906 4Z" stroke="#7B5544" stroke-width="8"/>
</g>
<defs>
<clipPath id="clip0_194_392">
<rect width="217" height="750" fill="white"/>
</clipPath>
</defs>
</svg>
