<?xml version="1.0" encoding="utf-8"?>
<!-- Generator: Adobe Illustrator 16.0.0, SVG Export Plug-In . SVG Version: 6.00 Build 0)  -->
<!DOCTYPE svg PUBLIC "-//W3C//DTD SVG 1.1//EN" "http://www.w3.org/Graphics/SVG/1.1/DTD/svg11.dtd">
<svg version="1.1" id="レイヤー_1" xmlns="http://www.w3.org/2000/svg" xmlns:xlink="http://www.w3.org/1999/xlink" x="0px"
	 y="0px" width="151.928px" height="243.519px" viewBox="0 0 151.928 243.519" enable-background="new 0 0 151.928 243.519"
	 xml:space="preserve">
<g>
	<path fill="#7B5544" d="M151.644,71.069c-0.235,1.438-0.603,2.875-1.072,4.328c-0.483,1.439-0.968,2.759-1.451,3.962
		c-2.875,6.733-7.145,12.324-12.793,16.769c-5.649,4.444-11.721,8.713-18.206,12.792c-6.969,4.093-13.82,8.421-20.553,12.984
		c-6.734,4.561-12.015,10.093-15.858,16.591c-2.406,4.078-3.977,9.374-4.694,15.858c-0.719,6.484-1.614,12.675-2.7,18.573
		c-1.086,5.884-3.433,10.034-7.026,12.426c-4.328-7.439-6.133-15.433-5.414-23.971c0.719-8.524,3.007-16.768,6.851-24.69
		c3.843-7.937,8.171-14.671,12.984-20.202c3.844-4.328,7.922-8.04,12.248-11.164c4.328-3.126,8.48-6.441,12.442-9.918
		c3.975-3.492,7.026-7.629,9.198-12.44c0.483-0.719,0.952-2.04,1.437-3.975c2.406-6.719,3.359-13.688,2.889-20.906
		c-0.483-7.204-2.288-13.937-5.412-20.187c-4.563-9.139-11.473-16.108-20.73-20.919c-9.256-4.798-20.494-4.681-33.713,0.366
		c-5.765,2.157-11.295,6.484-16.576,12.983c-5.297,6.484-8.906,12.5-10.828,18.03c-1.672,4.797-2.582,9.125-2.699,12.969
		c-0.118,3.859-0.543,6.983-1.263,9.374c-0.718,2.406-2.89,4.211-6.483,5.414c-3.859,1.202-7.336,0.895-10.46-0.91
		c-3.125-1.79-5.648-4.078-7.57-6.836c-1.921-2.773-3.125-4.753-3.608-5.956c-1.204-4.813-0.544-10.635,1.979-17.488
		c2.524-6.851,5.106-12.074,7.761-15.681c6.484-9.125,16.343-16.227,29.56-21.274c13.219-5.045,26.804-7.687,40.739-7.935
		c8.656-0.235,17.063,0.674,25.234,2.714c8.171,2.038,15.272,5.105,21.272,9.183c9.374,6.5,16.049,14.246,20.011,23.267
		C151.115,44.208,152.611,56.165,151.644,71.069z M87.842,230.067c-1.687,4.328-4.694,7.746-9.022,10.269
		c-4.328,2.523-9.139,3.55-14.421,3.066c-6.733-0.719-11.236-3.727-13.526-9.007c-2.273-5.282-2.933-10.696-1.98-16.227
		c0.969-4.563,2.891-8.654,5.78-12.265c2.875-3.608,6.662-5.941,11.356-7.026c4.679-1.086,9.916,0.059,15.683,3.418
		c4.077,4.327,6.601,9.022,7.569,14.069C90.233,221.411,89.749,225.974,87.842,230.067z"/>
</g>
</svg>
