<svg width="36" height="32" viewBox="0 0 36 32" fill="none" xmlns="http://www.w3.org/2000/svg">
<path d="M3.18359 21.5048C3.84827 20.9421 11.3883 28.9384 12.8304 30.8709C13.2938 31.492 16.2265 32.8445 16.2281 31.2533C16.2312 28.912 17.5903 26.5334 18.6159 24.4991C20.2999 21.1566 21.9432 17.4549 24.0077 14.3355C26.895 9.97081 27.9221 8.31121 36 0C29.9115 2.35142 29.3901 2.70744 21.7921 11.8387C19.4787 15.1968 17.3163 18.6653 15.3873 22.2557C14.101 24.6499 12.5517 27.467 12.5485 30.2599C13.6814 30.3874 14.8142 30.5156 15.9463 30.6431C13.7338 27.6784 10.9569 25.0409 8.34519 22.4299C6.25409 20.3396 3.75432 18.0006 0.493582 19.228C-1.21938 19.8724 1.98107 21.9572 3.18359 21.5048Z" fill="#FF8726"/>
</svg>
