<svg width="288" height="285" viewBox="0 0 288 285" fill="none" xmlns="http://www.w3.org/2000/svg">
<path d="M74.5181 192.031C71.8129 192.031 69.6201 189.834 69.6201 187.125C69.6201 177.62 61.8983 169.886 52.4069 169.886C42.9155 169.886 35.1938 177.62 35.1938 187.125C35.1938 189.834 33.0009 192.031 30.2958 192.031C27.5906 192.031 25.3977 189.834 25.3977 187.125C25.3977 172.21 37.514 160.075 52.4069 160.075C67.2999 160.075 79.4161 172.21 79.4161 187.125C79.4161 189.834 77.2233 192.031 74.5181 192.031Z" fill="#FF8726"/>
<path d="M257.704 192.031C254.999 192.031 252.806 189.834 252.806 187.125C252.806 177.62 245.084 169.886 235.593 169.886C226.102 169.886 218.38 177.62 218.38 187.125C218.38 189.834 216.187 192.031 213.482 192.031C210.777 192.031 208.584 189.834 208.584 187.125C208.584 172.21 220.7 160.075 235.593 160.075C250.486 160.075 262.602 172.21 262.602 187.125C262.602 189.834 260.409 192.031 257.704 192.031Z" fill="#FF8726"/>
<path d="M144 285C115.011 285 91.4265 257.399 91.4265 223.473C91.4265 220.493 93.8388 218.077 96.8144 218.077H191.186C194.162 218.077 196.574 220.493 196.574 223.473C196.574 223.624 196.5 238.718 190.113 253.761C181.436 274.198 165.49 285 144 285ZM102.437 228.869C104.662 254.318 122.454 274.208 144 274.208C160.974 274.208 173.114 265.996 180.084 249.799C183.463 241.948 184.845 233.959 185.409 228.869H102.437Z" fill="#FF8726"/>
<path d="M144 64.2503C142.527 64.2503 141.333 63.0543 141.333 61.5798V2.67049C141.333 1.19544 142.528 0 144 0C145.472 0 146.666 1.19593 146.666 2.67049V61.5798C146.666 63.0548 145.473 64.2503 144 64.2503Z" fill="#FF8726"/>
<path d="M243.74 105.627C243.058 105.627 242.375 105.366 241.855 104.844C240.813 103.801 240.813 102.11 241.855 101.068L283.447 59.412C284.489 58.3687 286.177 58.3687 287.219 59.412C288.26 60.4549 288.26 62.1458 287.219 63.1887L245.626 104.844C245.106 105.366 244.423 105.627 243.74 105.627Z" fill="#FF8726"/>
<path d="M44.2595 105.627C43.5768 105.627 42.8945 105.366 42.3738 104.844L0.781234 63.1897C-0.260086 62.1468 -0.260086 60.4559 0.781234 59.413C1.82304 58.3696 3.51139 58.3696 4.55271 59.413L46.1453 101.068C47.1866 102.11 47.1866 103.801 46.1453 104.844C45.6246 105.366 44.9423 105.627 44.2595 105.627Z" fill="#FF8726"/>
</svg>
