<svg width="268" height="258" viewBox="0 0 268 258" fill="none" xmlns="http://www.w3.org/2000/svg">
<g clip-path="url(#clip0_338_5)">
<path d="M39.5467 133.982L57.8722 115.627C60.5271 112.967 60.5271 108.655 57.8722 105.995C55.2169 103.336 50.9126 103.336 48.2574 105.995L29.9319 124.351L11.606 105.995C8.95116 103.335 4.64647 103.335 1.9912 105.995C-0.663682 108.654 -0.663682 112.966 1.9912 115.625L20.317 133.982L1.9912 152.338C-0.66406 154.998 -0.66406 159.31 1.9912 161.969C3.31883 163.299 5.05854 163.964 6.79863 163.964C8.53833 163.964 10.2784 163.299 11.606 161.969L29.9319 143.613L48.2566 161.969C49.5842 163.299 51.3239 163.964 53.064 163.964C54.8037 163.964 56.5438 163.299 57.8714 161.969C60.5263 159.31 60.5263 154.998 57.8714 152.339L39.5467 133.982Z" fill="white"/>
<path d="M180.808 133.982L199.134 115.627C201.789 112.967 201.789 108.655 199.134 105.995C196.479 103.336 192.174 103.336 189.519 105.995L171.193 124.351L152.868 105.995C150.213 103.335 145.908 103.335 143.253 105.995C140.598 108.654 140.598 112.966 143.253 115.625L161.579 133.982L143.253 152.338C140.598 154.998 140.598 159.31 143.253 161.969C144.581 163.299 146.32 163.964 148.061 163.964C149.8 163.964 151.54 163.299 152.868 161.969L171.194 143.613L189.519 161.969C190.847 163.299 192.586 163.964 194.326 163.964C196.066 163.964 197.806 163.299 199.134 161.969C201.789 159.31 201.789 154.998 199.134 152.339L180.808 133.982Z" fill="white"/>
<path d="M142.124 200.118H60.2114C58.0596 200.118 56.0932 198.897 55.1365 196.966C54.1798 195.035 54.3977 192.729 55.6989 191.012C63.8785 180.221 70.7195 172.79 77.2281 167.628C85.1716 161.328 92.8549 158.266 100.717 158.266C115.111 158.266 129.703 168.671 146.637 191.012C147.938 192.728 148.156 195.036 147.199 196.966C146.243 198.897 144.276 200.118 142.124 200.118ZM72.0093 188.768H130.24C119.016 175.902 109.303 169.616 100.716 169.616C92.2331 169.616 83.3703 175.445 72.0093 188.768Z" fill="white"/>
<path d="M39.5366 180.493C39.5366 185.807 35.2364 190.114 29.9319 190.114C24.6274 190.114 20.3273 185.807 20.3273 180.493C20.3273 175.18 29.9319 161.032 29.9319 161.032C29.9319 161.032 39.5366 175.18 39.5366 180.493Z" fill="white"/>
<path d="M39.5366 214.055C39.5366 219.369 35.2364 223.677 29.9319 223.677C24.6274 223.677 20.3273 219.369 20.3273 214.055C20.3273 208.742 29.9319 194.594 29.9319 194.594C29.9319 194.594 39.5366 208.742 39.5366 214.055Z" fill="white"/>
<path d="M39.5366 247.617C39.5366 252.931 35.2364 257.238 29.9319 257.238C24.6274 257.238 20.3273 252.931 20.3273 247.617C20.3273 242.304 29.9319 228.156 29.9319 228.156C29.9319 228.156 39.5366 242.304 39.5366 247.617Z" fill="white"/>
</g>
<g clip-path="url(#clip1_338_5)">
<path d="M189.919 81.5529C197.486 75.6756 210.492 78.3615 213.605 67.2177C215.283 61.2124 212.628 55.6942 211.147 49.9754C210.62 47.9442 210.133 44.1755 211.47 42.83C211.9 42.3971 212.91 41.9321 213.588 41.5982C219.653 38.615 226.174 36.5615 232.328 33.7588C238 31.1757 245.09 27.9391 248.269 22.1992C250.778 17.6676 248.049 13.218 244.494 10.261C244.031 9.87627 243.368 9.73556 242.842 10.0932C238.726 12.8882 239.872 20.9175 240.016 25.1188C240.134 28.5788 240.316 32.0399 240.204 35.5013C240.128 37.8197 240.066 40.9367 238.54 42.8325C236.907 44.8602 233.701 42.9135 232.045 41.9218C227.866 39.4169 220.102 33.7584 222.898 28.0515C224.261 25.2698 228.013 25.3295 230.547 25.895C233.46 26.5445 236.08 28.4379 238.493 30.1291C241.07 31.9358 244.663 35.0556 247.997 33.3161C252.347 31.0467 254.277 23.4659 254.712 19.0401C255.106 15.0213 254.512 8.86098 250.018 7.22408C244.913 5.36566 241.103 11.2284 239.153 15.0179C236.894 19.4091 236.468 24.5031 234.187 28.8693C231.482 34.0428 224.607 31.2981 221.834 27.524C219.111 23.818 218.987 18.4347 220.997 14.4216C223.257 9.90746 229.72 8.00284 233.545 11.769C237.119 15.2899 236.556 22.47 236.756 27.0408C236.807 28.2088 236.881 29.3746 236.994 30.539C237.166 32.2927 239.889 32.2535 239.716 30.4914C238.956 22.7084 240.577 7.78462 229.375 7.0696C219.77 6.4566 215.29 16.5764 217.576 24.856C219.777 32.8256 231.568 38.8718 236.584 30.1835C239.044 25.9222 239.291 20.6993 241.55 16.3322C242.851 13.8184 244.842 9.93683 248.055 9.62511C250.825 9.35649 251.813 13.3233 252.052 15.3528C252.49 19.0731 251.29 22.8233 249.932 26.2165C249.242 27.9384 247.906 31.3736 245.542 31.0442C243.784 30.7996 242.108 29.3593 240.702 28.3688C238.519 26.8311 236.341 25.3349 233.928 24.1836C229.855 22.2403 223.449 21.9001 220.769 26.2959C217.844 31.0938 221.067 36.3782 224.676 39.7291C228.019 42.8328 236.65 50.0812 240.816 44.3426C244.141 39.7612 242.998 32.0547 242.799 26.7606C242.686 23.7257 242.551 20.6823 242.722 17.6493C242.808 16.1374 242.874 13.3869 244.289 12.4264C243.738 12.3704 243.187 12.314 242.636 12.2586C244.73 14 247.033 16.3656 246.45 19.3385C245.924 22.0229 243.396 24.0845 241.336 25.6041C235.29 30.0653 227.977 32.7816 221.057 35.5355C218.233 36.6589 215.393 37.7522 212.634 39.0292C210.487 40.0225 209.171 40.8674 208.341 43.1738C206.396 48.5752 210.132 54.9266 211.22 60.1364C211.84 63.1064 211.349 66.533 209.904 69.1726C208.617 71.5261 206.029 72.7205 203.62 73.5382C198.454 75.2934 192.922 75.7606 188.47 79.2194C187.1 80.2852 188.53 82.6324 189.919 81.5529Z" fill="white"/>
</g>
<defs>
<clipPath id="clip0_338_5">
<rect width="201.125" height="153.238" fill="white" transform="translate(0 104)"/>
</clipPath>
<clipPath id="clip1_338_5">
<rect width="83" height="61" fill="white" transform="translate(171 23.6418) rotate(-16.5493)"/>
</clipPath>
</defs>
</svg>
