<?xml version="1.0" encoding="utf-8"?>
<!-- Generator: Adobe Illustrator 16.0.0, SVG Export Plug-In . SVG Version: 6.00 Build 0)  -->
<!DOCTYPE svg PUBLIC "-//W3C//DTD SVG 1.1//EN" "http://www.w3.org/Graphics/SVG/1.1/DTD/svg11.dtd">
<svg version="1.1" id="レイヤー_1" xmlns="http://www.w3.org/2000/svg" xmlns:xlink="http://www.w3.org/1999/xlink" x="0px"
	 y="0px" width="320px" height="320.004px" viewBox="0 0 320 320.004" enable-background="new 0 0 320 320.004"
	 xml:space="preserve">
<path fill="#06C755" d="M247.859,320H72.14C32.297,320,0,287.701,0,247.859V72.141C0,32.299,32.297,0,72.14,0h175.719
	C287.702,0,320,32.299,320,72.141v175.719C320,287.701,287.702,320,247.859,320"/>
<path fill="#FFFFFF" d="M266.656,144.925c0-47.74-47.859-86.58-106.688-86.58c-58.825,0-106.689,38.84-106.689,86.58
	c0,42.798,37.955,78.642,89.226,85.417c3.473,0.751,8.203,2.292,9.398,5.262c1.076,2.696,0.704,6.922,0.346,9.646
	c0,0-1.252,7.529-1.524,9.134c-0.465,2.695-2.144,10.549,9.243,5.752c11.386-4.799,61.44-36.18,83.824-61.94h-0.005
	C259.248,181.238,266.656,164.03,266.656,144.925"/>
<path fill="#06C755" d="M231.163,172.49h-29.934h-0.04c-1.125,0-2.037-0.911-2.037-2.037v-0.032v-0.003v-46.479v-0.003v-0.044
	c0-1.125,0.912-2.037,2.037-2.037h0.04h29.934c1.12,0,2.037,0.916,2.037,2.037v7.565c0,1.125-0.912,2.037-2.037,2.037h-20.37v7.857
	h20.37c1.12,0,2.037,0.917,2.037,2.037v7.566c0,1.125-0.912,2.037-2.037,2.037h-20.37v7.857h20.37c1.12,0,2.037,0.916,2.037,2.036
	v7.566C233.2,171.579,232.288,172.49,231.163,172.49"/>
<path fill="#06C755" d="M120.289,172.49c1.125,0,2.037-0.911,2.037-2.037v-7.566c0-1.12-0.917-2.036-2.037-2.036H99.917v-36.958
	c0-1.121-0.916-2.037-2.036-2.037h-7.567c-1.125,0-2.037,0.912-2.037,2.037v46.525v0.003v0.032c0,1.126,0.912,2.037,2.037,2.037
	h0.04H120.289z"/>
<path fill="#06C755" d="M138.333,121.854h-7.565c-1.125,0-2.038,0.913-2.038,2.037v46.562c0,1.125,0.913,2.037,2.038,2.037h7.565
	c1.126,0,2.037-0.912,2.037-2.037v-46.562C140.37,122.768,139.458,121.854,138.333,121.854"/>
<path fill="#06C755" d="M189.841,121.854h-7.566c-1.125,0-2.037,0.913-2.037,2.037v27.655l-21.303-28.77
	c-0.05-0.074-0.106-0.144-0.164-0.21c-0.004-0.005-0.008-0.01-0.013-0.015c-0.039-0.044-0.08-0.087-0.123-0.127l-0.038-0.035
	c-0.036-0.032-0.072-0.063-0.11-0.094l-0.056-0.041c-0.034-0.025-0.07-0.049-0.108-0.074c-0.02-0.013-0.041-0.025-0.062-0.037
	c-0.037-0.022-0.074-0.043-0.112-0.063c-0.022-0.011-0.043-0.021-0.065-0.031c-0.039-0.019-0.079-0.035-0.119-0.051
	c-0.022-0.009-0.044-0.017-0.066-0.024c-0.041-0.015-0.082-0.028-0.124-0.04c-0.024-0.007-0.048-0.013-0.073-0.02
	c-0.04-0.009-0.08-0.018-0.121-0.025c-0.028-0.005-0.057-0.009-0.086-0.014c-0.037-0.005-0.073-0.01-0.11-0.013
	c-0.036-0.004-0.072-0.005-0.108-0.006c-0.024-0.001-0.047-0.004-0.071-0.004h-7.524c-1.125,0-2.037,0.913-2.037,2.037v46.562
	c0,1.125,0.912,2.037,2.037,2.037h7.566c1.125,0,2.037-0.912,2.037-2.037v-27.646l21.33,28.805c0.147,0.208,0.327,0.378,0.526,0.514
	c0.008,0.005,0.015,0.011,0.023,0.016c0.041,0.028,0.085,0.054,0.128,0.078c0.02,0.011,0.039,0.022,0.06,0.032
	c0.032,0.018,0.064,0.033,0.098,0.048c0.034,0.016,0.066,0.029,0.1,0.043c0.021,0.009,0.043,0.017,0.064,0.023
	c0.046,0.017,0.093,0.032,0.141,0.045c0.01,0.003,0.02,0.007,0.029,0.008c0.17,0.045,0.348,0.071,0.533,0.071h7.524
	c1.125,0,2.037-0.912,2.037-2.037v-46.562C191.878,122.768,190.966,121.854,189.841,121.854"/>
</svg>
